<?xml version="1.0" encoding="UTF-8"?>
<svg width="275px" height="275px" viewBox="0 0 275 275" version="1.1" xmlns="http://www.w3.org/2000/svg" xmlns:xlink="http://www.w3.org/1999/xlink">
    <!-- Generator: Sketch 40.3 (33839) - http://www.bohemiancoding.com/sketch -->
    <title>av symbol</title>
    <desc>Created with Sketch.</desc>
    <defs></defs>
    <g id="Page-1" stroke="none" stroke-width="1" fill="none" fill-rule="evenodd">
        <g id="av-symbol" transform="translate(6.000000, 6.000000)">
            <g id="Group">
                <path d="M131.8,174.5 C150.5,174.5 166.5,162.1 172,145.2 L257.6,172.9 L172,145.2 C173.4,141 174.2,136.6 174.2,132 C174.2,117.9 167.2,105.3 156.6,97.7 L209.5,25 L156.6,97.7 C149.6,92.6 141,89.5 131.8,89.5 C122.4,89.5 113.8,92.5 106.7,97.7 L53.9,24.9 L106.7,97.6 C96.1,105.3 89.2,117.9 89.2,131.9 C89.2,136.5 89.9,140.9 91.3,145.1 L5.6,173 L91.2,145.2 C96.9,162.1 112.9,174.5 131.8,174.5 L131.8,174.5 Z M131.8,174.5 L131.8,264.5 L131.8,174.5 L131.8,174.5 L131.8,174.5 Z M131.3,262.9 C203.4,262.9 262.5,204 262.5,131.6 C262.5,59.2 203.5,0.4 131.3,0.4 C59,0.4 0.1,59.4 0.1,131.7 C0.1,204 59,262.9 131.3,262.9 L131.3,262.9 Z" id="Shape" stroke="#fff" stroke-width="12"></path>
                <path d="M131.3,123.6 C126.4,123.6 122.5,127.6 122.5,132.4 C122.5,137.2 126.5,141.2 131.3,141.2 C136.2,141.2 140.1,137.2 140.1,132.4 C140.1,127.6 136.2,123.6 131.3,123.6 L131.3,123.6 L131.3,123.6 Z" id="Shape" fill="#fff"></path>
            </g>
        </g>
    </g>
</svg>
